<?xml version="1.0" encoding="UTF-8" standalone="no"?>
<!-- Generated by Pixelmator Pro 3.7 -->

<svg
   width="512"
   height="380"
   viewBox="0 0 512 380"
   version="1.1"
   id="svg1"
   sodipodi:docname="logo-splash.svg"
   inkscape:version="1.4.2 (ebf0e940, 2025-05-08)"
   xmlns:inkscape="http://www.inkscape.org/namespaces/inkscape"
   xmlns:sodipodi="http://sodipodi.sourceforge.net/DTD/sodipodi-0.dtd"
   xmlns:xlink="http://www.w3.org/1999/xlink"
   xmlns="http://www.w3.org/2000/svg"
   xmlns:svg="http://www.w3.org/2000/svg">
  <defs
     id="defs1">
    <linearGradient
       inkscape:collect="always"
       xlink:href="#linearGradient3"
       id="linearGradient4"
       x1="11.052952"
       y1="144.18117"
       x2="239.01823"
       y2="144.18117"
       gradientUnits="userSpaceOnUse"
       gradientTransform="matrix(0.66916387,0,0,0.66916387,161.12618,35.586685)" />
    <linearGradient
       id="linearGradient3"
       inkscape:collect="always">
      <stop
         style="stop-color:#7dfaff;stop-opacity:0;"
         offset="0"
         id="stop4" />
      <stop
         style="stop-color:#53989d;stop-opacity:0.4627451;"
         offset="1"
         id="stop3" />
    </linearGradient>
    <linearGradient
       inkscape:collect="always"
       xlink:href="#linearGradient1"
       id="linearGradient2"
       x1="143.43904"
       y1="353.31631"
       x2="143.91425"
       y2="-0.033539906"
       gradientUnits="userSpaceOnUse"
       gradientTransform="matrix(0.66916387,0,0,0.66916387,161.12618,35.586685)" />
    <linearGradient
       id="linearGradient1"
       inkscape:collect="always">
      <stop
         style="stop-color:#3e8083;stop-opacity:1;"
         offset="0"
         id="stop1" />
      <stop
         style="stop-color:#5dbcc6;stop-opacity:1;"
         offset="1"
         id="stop2" />
    </linearGradient>
  </defs>
  <sodipodi:namedview
     id="namedview1"
     pagecolor="#ffffff"
     bordercolor="#000000"
     borderopacity="0.25"
     inkscape:showpageshadow="2"
     inkscape:pageopacity="0.0"
     inkscape:pagecheckerboard="0"
     inkscape:deskcolor="#d1d1d1"
     inkscape:zoom="1.625"
     inkscape:cx="255.69231"
     inkscape:cy="190.15385"
     inkscape:window-width="2504"
     inkscape:window-height="1381"
     inkscape:window-x="63"
     inkscape:window-y="31"
     inkscape:window-maximized="0"
     inkscape:current-layer="svg1" />
  <text
     id="Polly"
     opacity="0.680073"
     xml:space="preserve"
     x="167"
     y="348"
     font-family="Public Sans"
     font-size="75.373799"
     fill="#000000"
     style="fill:#203636;fill-opacity:1">Polly</text>
  <path
     style="fill:url(#linearGradient4);stroke-width:0.792223"
     d="m 302.29324,225.17566 c -7.89392,-0.43751 -29.30464,-3.2478 -42.13942,-8.8811 -13.76424,-6.04125 -37.49619,-22.10683 -50.10795,-34.73139 -11.88384,-11.89591 -21.85534,-22.515 -30.17188,-35.00934 -9.19959,-13.821 -12.0782,-21.51031 -13.98776,-33.05481 -1.42443,-8.61157 -1.24955,-21.504086 4.8057,-35.421752 5.89127,-13.540771 20.45283,-28.075673 28.71974,-32.728772 9.30454,-5.237133 19.80988,-7.009241 26.50387,-6.731138 l 7.31588,0.30394 -0.23411,7.702149 0.46822,6.765716 -4.746,2.385536 c -7.79244,3.91681 -12.70106,5.939284 -16.54221,14.136074 -1.95425,4.170276 -4.71517,10.872266 -3.37184,16.00911 1.95786,7.486706 4.83483,19.457397 13.25162,29.023767 10.62292,12.0738 19.1103,19.3485 50.8033,51.06932 l 55.69962,55.27764 -6.75394,1.90085 c -5.23157,1.47238 -9.26843,2.55196 -19.51284,1.9842 z"
     id="path2"
     sodipodi:nodetypes="sssssssscccssssscss"
     inkscape:label="inner" />
  <path
     id="polly"
     fill="#01a2ff"
     stroke="none"
     d="M 278.76514,85.829686 H 236.79518 V 42.70662 c 10.69317,1.085208 20.62838,5.782671 28.37155,13.49805 8.00251,8.03184 12.76017,18.444051 13.59841,29.625016 m -19.54318,7.156574 c -6.61782,10.85216 -17.18748,12.62279 -22.42678,12.78333 V 92.98626 Z m 62.19851,127.44579 c -5.13587,0.83668 -13.13683,1.70115 -22.85284,1.28591 -15.75031,-0.67771 -39.39352,-4.9707 -62.58906,-21.58549 -21.64876,-15.50484 -43.73284,-39.68834 -57.63534,-63.1108 -0.94628,-1.59001 -1.86478,-3.22323 -2.73697,-4.85647 -10.01085,-18.7713 -9.73762,-41.066884 0.73018,-59.640593 10.10809,-17.937735 27.51787,-28.857819 47.76341,-29.961568 1.21181,-0.06637 2.44212,-0.09878 3.65855,-0.09878 h 1.88022 v 9.831774 c -14.01519,2.121036 -24.78863,14.24828 -24.78863,28.843909 0,7.312489 1.40939,14.379509 4.18959,21.001968 2.75704,6.68729 6.76447,12.67681 11.90342,17.78335 z m 5.86603,21.00352 c -14.50146,0.0617 -45.49728,-1.01422 -70.94661,-10.31807 -27.73091,-10.13433 -47.59824,-26.43265 -64.41833,-52.84217 -4.67739,-7.34644 -7.45605,-14.92906 -9.10162,-21.59319 13.78364,18.78985 31.52222,36.75535 48.99066,49.267 24.73305,17.71541 49.94774,22.24924 66.74467,22.93156 5.98182,0.24081 11.32301,0.0356 15.82133,-0.35505 z m 4.40108,23.20941 h -9.7685 c -10.12354,0 -19.63887,-3.94106 -26.79544,-11.09913 -3.20315,-3.20166 -6.83084,-5.91082 -10.80276,-8.06273 11.43568,1.837 22.34342,2.64588 31.16564,2.96235 z m -9.7685,7.15657 h 27.04551 l -23.17855,-23.17703 c 5.89227,-0.008 9.628,-0.21302 10.14359,-0.24234 l 7.96084,-0.46311 -20.54038,-20.54193 c 3.83145,-0.65608 6.05899,-1.28127 6.27202,-1.34147 l 5.85368,-1.6672 -109.47874,-109.51115 c -4.47054,-4.44122 -7.95002,-9.64037 -10.35046,-15.463205 -2.42051,-5.762607 -3.64158,-11.897234 -3.64158,-18.25417 0,-10.639131 7.58571,-19.540061 17.63361,-21.577739 v 52.802034 l 3.11671,0.406 c 0.26245,0.0339 6.5144,0.81044 13.97044,-1.49739 6.53909,-2.02377 15.2378,-6.84165 20.60522,-18.28659 h 18.72346 v -3.578299 c 0,-14.431992 -5.62059,-28.01956 -15.82748,-38.263522 C 259.97529,40.929828 246.39851,35.307692 231.98658,35.307692 h -4.22818 c -1.3461,0 -2.70609,0.03704 -4.0491,0.109601 -22.40054,1.221068 -42.44232,13.780555 -53.60785,33.593855 -11.67495,20.714833 -11.97598,45.582192 -0.8089,66.520842 0.9216,1.72895 1.89721,3.45942 2.89598,5.1436 0.42297,0.7101 0.85212,1.42328 1.28743,2.13492 0.53413,8.6169 2.89752,24.36722 12.40976,39.30862 16.75217,26.30299 36.40802,43.09837 63.26365,53.90423 l 30.43854,15.06646 c 3.88549,1.92343 7.40973,4.45046 10.4755,7.51778 8.50886,8.50882 19.82104,13.19395 31.85567,13.19395"
     style="fill:url(#linearGradient2);stroke-width:0.669164" />
</svg>
