<?xml version="1.0" encoding="UTF-8" standalone="no"?>
<!-- Generated by Pixelmator Pro 3.7 -->

<svg
   width="256"
   height="256"
   viewBox="0 0 256 256"
   version="1.1"
   id="svg1"
   sodipodi:docname="logo.svg"
   inkscape:version="1.4.2 (ebf0e940, 2025-05-08)"
   inkscape:export-filename="logo-bg512.webp"
   inkscape:export-xdpi="96"
   inkscape:export-ydpi="96"
   xmlns:inkscape="http://www.inkscape.org/namespaces/inkscape"
   xmlns:sodipodi="http://sodipodi.sourceforge.net/DTD/sodipodi-0.dtd"
   xmlns:xlink="http://www.w3.org/1999/xlink"
   xmlns="http://www.w3.org/2000/svg"
   xmlns:svg="http://www.w3.org/2000/svg">
  <defs
     id="defs1">
    <linearGradient
       id="linearGradient5"
       inkscape:collect="always">
      <stop
         style="stop-color:#ffffff;stop-opacity:1;"
         offset="0"
         id="stop6" />
      <stop
         style="stop-color:#e9f1f4;stop-opacity:1;"
         offset="1"
         id="stop5" />
    </linearGradient>
    <linearGradient
       inkscape:collect="always"
       xlink:href="#linearGradient3"
       id="linearGradient4"
       x1="11.052952"
       y1="144.18117"
       x2="239.01823"
       y2="144.18117"
       gradientUnits="userSpaceOnUse"
       gradientTransform="matrix(0.66916387,0,0,0.66916387,34.30769,9.5097622)" />
    <linearGradient
       id="linearGradient3"
       inkscape:collect="always">
      <stop
         style="stop-color:#7dfaff;stop-opacity:0;"
         offset="0"
         id="stop4" />
      <stop
         style="stop-color:#53989d;stop-opacity:0.4627451;"
         offset="1"
         id="stop3" />
    </linearGradient>
    <linearGradient
       inkscape:collect="always"
       xlink:href="#linearGradient1"
       id="linearGradient2"
       x1="143.43904"
       y1="353.31631"
       x2="143.91425"
       y2="-0.033539906"
       gradientUnits="userSpaceOnUse"
       gradientTransform="matrix(0.66916387,0,0,0.66916387,34.30769,9.5097622)" />
    <linearGradient
       id="linearGradient1"
       inkscape:collect="always">
      <stop
         style="stop-color:#3e8083;stop-opacity:1;"
         offset="0"
         id="stop1" />
      <stop
         style="stop-color:#5dbcc6;stop-opacity:1;"
         offset="1"
         id="stop2" />
    </linearGradient>
    <linearGradient
       inkscape:collect="always"
       xlink:href="#linearGradient5"
       id="linearGradient6"
       x1="132.92308"
       y1="-7.0769219"
       x2="132.92308"
       y2="268"
       gradientUnits="userSpaceOnUse" />
  </defs>
  <sodipodi:namedview
     id="namedview1"
     pagecolor="#ffffff"
     bordercolor="#000000"
     borderopacity="0.25"
     inkscape:showpageshadow="2"
     inkscape:pageopacity="0.0"
     inkscape:pagecheckerboard="0"
     inkscape:deskcolor="#d1d1d1"
     inkscape:zoom="1.625"
     inkscape:cx="94.461538"
     inkscape:cy="155.07692"
     inkscape:window-width="2504"
     inkscape:window-height="1381"
     inkscape:window-x="63"
     inkscape:window-y="31"
     inkscape:window-maximized="0"
     inkscape:current-layer="svg1" />
  <rect
     style="display:none;fill:url(#linearGradient6);stroke-width:3.41792"
     id="rect1"
     width="248"
     height="248"
     x="4.9230766"
     y="4.3076921"
     rx="38.536343"
     ry="38.536343"
     inkscape:label="bg" />
  <path
     style="fill:url(#linearGradient4);stroke-width:0.792223"
     d="m 175.47475,199.09874 c -7.89392,-0.43751 -29.30464,-3.2478 -42.13942,-8.8811 -13.76424,-6.04125 -37.49619,-22.10683 -50.107951,-34.73139 -11.88384,-11.89591 -21.85534,-22.515 -30.17188,-35.00934 C 43.85591,106.65591 40.9773,98.966597 39.06774,87.422097 37.64331,78.810527 37.81819,65.918011 43.87344,52.000345 49.764709,38.459574 64.326269,23.924672 72.593179,19.271573 81.897719,14.03444 92.40306,12.262332 99.09705,12.540435 l 7.31588,0.30394 -0.23411,7.702149 0.46822,6.765716 -4.746,2.385536 c -7.79244,3.91681 -12.701061,5.939284 -16.542211,14.136074 -1.95425,4.170276 -4.71517,10.872266 -3.37184,16.00911 1.95786,7.486706 4.83483,19.457397 13.251621,29.023767 10.62292,12.073803 19.1103,19.348503 50.8033,51.069323 l 55.69962,55.27764 -6.75394,1.90085 c -5.23157,1.47238 -9.26843,2.55196 -19.51284,1.9842 z"
     id="path2"
     sodipodi:nodetypes="sssssssscccssssscss"
     inkscape:label="inner" />
  <path
     id="polly"
     fill="#01a2ff"
     stroke="none"
     d="M 151.94665,59.752763 H 109.97669 V 16.629697 c 10.69317,1.085208 20.62838,5.782671 28.37155,13.49805 8.00251,8.03184 12.76017,18.444051 13.59841,29.625016 m -19.54318,7.156574 c -6.61782,10.85216 -17.18748,12.62279 -22.42678,12.78333 v -12.78333 z m 62.19851,127.445793 c -5.13587,0.83668 -13.13683,1.70115 -22.85284,1.28591 -15.75031,-0.67771 -39.39352,-4.9707 -62.58906,-21.58549 -21.648761,-15.50484 -43.732841,-39.68834 -57.635341,-63.1108 -0.94628,-1.59001 -1.86478,-3.22323 -2.73697,-4.85647 C 38.77692,87.316977 39.05015,65.021393 49.517949,46.447684 59.626039,28.509949 77.035819,17.589865 97.28136,16.486116 c 1.21181,-0.06637 2.44212,-0.09878 3.65855,-0.09878 h 1.88022 v 9.831774 c -14.015191,2.121036 -24.788631,14.24828 -24.788631,28.843909 0,7.312489 1.40939,14.379509 4.18959,21.001968 2.75704,6.68729 6.76447,12.67681 11.903421,17.78335 z m 5.86603,21.00352 c -14.50146,0.0617 -45.49728,-1.01422 -70.94661,-10.31807 -27.73091,-10.13433 -47.598241,-26.43265 -64.418331,-52.84217 -4.67739,-7.34644 -7.45605,-14.92906 -9.10162,-21.59319 13.78364,18.78985 31.52222,36.75535 48.990661,49.267 24.73305,17.71541 49.94774,22.24924 66.74467,22.93156 5.98182,0.24081 11.32301,0.0356 15.82133,-0.35505 z m 4.40108,23.20941 h -9.7685 c -10.12354,0 -19.63887,-3.94106 -26.79544,-11.09913 -3.20315,-3.20166 -6.83084,-5.91082 -10.80276,-8.06273 11.43568,1.837 22.34342,2.64588 31.16564,2.96235 z m -9.7685,7.15657 H 222.1461 L 198.96755,222.5476 c 5.89227,-0.008 9.628,-0.21302 10.14359,-0.24234 l 7.96084,-0.46311 -20.54038,-20.54193 c 3.83145,-0.65608 6.05899,-1.28127 6.27202,-1.34147 l 5.85368,-1.6672 L 99.17856,88.780397 c -4.47054,-4.44122 -7.95002,-9.64037 -10.350461,-15.463205 -2.42051,-5.762607 -3.64158,-11.897234 -3.64158,-18.25417 0,-10.639131 7.585711,-19.540061 17.633611,-21.577739 v 52.802034 l 3.11671,0.406 c 0.26245,0.0339 6.5144,0.81044 13.97044,-1.49739 6.53909,-2.02377 15.2378,-6.84165 20.60522,-18.28659 h 18.72346 v -3.578299 c 0,-14.431992 -5.62059,-28.01956 -15.82748,-38.263522 C 133.1568,14.852905 119.58002,9.2307692 105.16809,9.2307692 h -4.22818 c -1.3461,0 -2.70609,0.03704 -4.0491,0.109601 C 74.490269,10.561438 54.448489,23.120925 43.28296,42.934225 31.60801,63.649058 31.30698,88.516417 42.47406,109.45507 c 0.9216,1.72895 1.897209,3.45942 2.895979,5.1436 0.42297,0.7101 0.85212,1.42328 1.28743,2.13492 0.53413,8.6169 2.89752,24.36722 12.40976,39.30862 16.75217,26.30299 36.408021,43.09837 63.263651,53.90423 l 30.43854,15.06646 c 3.88549,1.92343 7.40973,4.45046 10.4755,7.51778 8.50886,8.50882 19.82104,13.19395 31.85567,13.19395"
     style="fill:url(#linearGradient2);stroke-width:0.669164" />
</svg>
