<?xml version="1.0" encoding="UTF-8" standalone="no"?>
<!-- Generated by Pixelmator Pro 3.7 -->

<svg
   width="288"
   height="100"
   viewBox="0 0 288 99.999995"
   version="1.1"
   id="svg1"
   sodipodi:docname="logo-splash.svg"
   inkscape:version="1.4.2 (ebf0e940, 2025-05-08)"
   xmlns:inkscape="http://www.inkscape.org/namespaces/inkscape"
   xmlns:sodipodi="http://sodipodi.sourceforge.net/DTD/sodipodi-0.dtd"
   xmlns:xlink="http://www.w3.org/1999/xlink"
   xmlns="http://www.w3.org/2000/svg"
   xmlns:svg="http://www.w3.org/2000/svg">
  <defs
     id="defs1">
    <linearGradient
       inkscape:collect="always"
       xlink:href="#linearGradient3"
       id="linearGradient4"
       x1="11.052952"
       y1="144.18117"
       x2="239.01823"
       y2="144.18117"
       gradientUnits="userSpaceOnUse"
       gradientTransform="matrix(0.23509372,0,0,0.23509372,45.280027,8.9441719)" />
    <linearGradient
       id="linearGradient3"
       inkscape:collect="always">
      <stop
         style="stop-color:#7dfaff;stop-opacity:0;"
         offset="0"
         id="stop4" />
      <stop
         style="stop-color:#53989d;stop-opacity:0.4627451;"
         offset="1"
         id="stop3" />
    </linearGradient>
    <linearGradient
       inkscape:collect="always"
       xlink:href="#linearGradient1"
       id="linearGradient2"
       x1="143.43904"
       y1="353.31631"
       x2="143.91425"
       y2="-0.033539906"
       gradientUnits="userSpaceOnUse"
       gradientTransform="matrix(0.23509372,0,0,0.23509372,45.280027,8.9441719)" />
    <linearGradient
       id="linearGradient1"
       inkscape:collect="always">
      <stop
         style="stop-color:#3e8083;stop-opacity:1;"
         offset="0"
         id="stop1" />
      <stop
         style="stop-color:#5dbcc6;stop-opacity:1;"
         offset="1"
         id="stop2" />
    </linearGradient>
  </defs>
  <sodipodi:namedview
     id="namedview1"
     pagecolor="#ffffff"
     bordercolor="#000000"
     borderopacity="0.25"
     inkscape:showpageshadow="2"
     inkscape:pageopacity="0.0"
     inkscape:pagecheckerboard="0"
     inkscape:deskcolor="#d1d1d1"
     inkscape:zoom="1.625"
     inkscape:cx="255.69231"
     inkscape:cy="190.15385"
     inkscape:window-width="2504"
     inkscape:window-height="1381"
     inkscape:window-x="63"
     inkscape:window-y="31"
     inkscape:window-maximized="0"
     inkscape:current-layer="svg1" />
  <path
     style="fill:url(#linearGradient4);stroke-width:0.278327"
     d="M 94.875487,75.551439 C 92.102159,75.397732 84.580046,74.410408 80.070873,72.431291 75.235157,70.308851 66.897539,64.66462 62.466718,60.229301 58.291632,56.049975 54.788399,52.319228 51.866594,47.929659 48.634552,43.074002 47.623225,40.372558 46.95235,36.316691 c -0.500437,-3.025456 -0.438997,-7.554914 1.688361,-12.444532 2.069747,-4.757206 7.185582,-9.863675 10.089951,-11.498424 3.268914,-1.839933 6.959698,-2.4625182 9.311461,-2.364814 l 2.570249,0.106782 -0.08225,2.705954 0.164497,2.376963 -1.667387,0.838097 c -2.737675,1.376072 -4.462195,2.086617 -5.811685,4.966351 -0.686576,1.46512 -1.656555,3.819694 -1.18461,5.624394 0.687844,2.630264 1.698595,6.835862 4.65562,10.196764 3.732093,4.241822 6.713918,6.797603 17.848448,17.941907 l 19.568645,19.420393 -2.37282,0.667816 c -1.837983,0.517283 -3.256231,0.896566 -6.855345,0.697097 z"
     id="path2"
     sodipodi:nodetypes="sssssssscccssssscss"
     inkscape:label="inner" />
  <path
     id="polly"
     fill="#01a2ff"
     stroke="none"
     d="M 86.609487,26.595774 H 71.864408 V 11.445579 c 3.756774,0.381261 7.247258,2.031595 9.967623,4.742198 2.811478,2.821783 4.482962,6.479848 4.777456,10.407997 m -6.866,2.51428 c -2.325002,3.81263 -6.038384,4.434697 -7.879079,4.491098 v -4.491098 z m 21.851863,44.774839 c -1.804354,0.293946 -4.615288,0.597656 -8.028762,0.451772 C 88.033117,74.098569 79.726677,72.590336 71.577513,66.753153 63.971771,61.305922 56.213091,52.809663 51.328801,44.580777 c -0.332452,-0.55861 -0.655143,-1.1324 -0.961565,-1.706198 -3.517058,-6.594819 -3.421066,-14.427806 0.25653,-20.953207 3.55122,-6.301967 9.667704,-10.138462 16.780461,-10.526236 0.425738,-0.02332 0.857977,-0.0347 1.285338,-0.0347 h 0.660568 v 3.454144 c -4.923881,0.745173 -8.708855,5.005771 -8.708855,10.133575 0,2.569057 0.495153,5.051875 1.471905,7.378508 0.968616,2.349409 2.376525,4.453675 4.181965,6.247728 z m 2.06088,7.379053 C 98.561514,81.285626 87.671921,80.907626 78.730946,77.638954 68.988395,74.078515 62.008513,68.352515 56.099202,59.074202 54.45592,56.493217 53.479708,53.829256 52.901579,51.487984 c 4.842532,6.601336 11.074531,12.913058 17.211624,17.308708 8.689328,6.223858 17.547868,7.816703 23.449043,8.056419 2.10156,0.0846 3.978052,0.01251 5.558423,-0.124737 z m 1.54621,8.154037 h -3.43191 c -3.556651,0 -6.899621,-1.384592 -9.4139,-3.899397 -1.125345,-1.124822 -2.399842,-2.076617 -3.795275,-2.832636 4.017636,0.645383 7.849793,0.929563 10.949256,1.040747 z m -3.43191,2.514279 h 9.50175 l -8.1432,-8.142661 c 2.0701,-0.0028 3.38256,-0.07484 3.5637,-0.08514 l 2.79684,-0.162702 -7.21634,-7.216886 c 1.34608,-0.230496 2.12867,-0.450142 2.20351,-0.471291 L 106.53333,75.267858 68.07076,36.7939 c -1.570611,-1.56031 -2.793038,-3.3869 -3.636372,-5.432604 -0.850385,-2.024546 -1.279376,-4.179791 -1.279376,-6.413139 0,-3.737789 2.665046,-6.864904 6.195121,-7.580791 v 18.550653 l 1.094977,0.142639 c 0.0922,0.01191 2.288669,0.284727 4.908159,-0.52607 2.297343,-0.711001 5.353414,-2.403641 7.23912,-6.42453 h 6.578012 v -1.257144 c 0,-5.070314 -1.974651,-9.84396 -5.560584,-13.442917 C 80.008151,10.821353 75.238295,8.8461587 70.175028,8.8461587 h -1.485463 c -0.472918,0 -0.950716,0.013011 -1.422548,0.038503 -7.869861,0.4289916 -14.911031,4.8414483 -18.833756,11.8023493 -4.101698,7.277629 -4.207457,16.014145 -0.284187,23.370407 0.323781,0.607423 0.666537,1.215379 1.017429,1.807074 0.1486,0.249475 0.299371,0.500033 0.452306,0.75005 0.187653,3.027328 1.01797,8.560803 4.359854,13.810084 5.88545,9.240889 12.791033,15.141518 22.226076,18.937882 l 10.693807,5.293218 c 1.365068,0.675749 2.603221,1.563556 3.680301,2.641181 2.989371,2.989358 6.963619,4.63536 11.191683,4.63536"
     style="fill:url(#linearGradient2);stroke-width:0.235094" />
  <g
     transform="matrix(0.39915618,0,0,0.39915618,175.96894,54.493133)"
     id="text-logo">
    <g
       paint-order="stroke"
       id="g4">
      <g
         id="text-logo-path-0">
        <path
           style="opacity:1;fill:#126c72;fill-rule:nonzero;stroke:none;stroke-width:0;stroke-linecap:butt;stroke-linejoin:miter;stroke-miterlimit:4;stroke-dasharray:none;stroke-dashoffset:0"
           paint-order="stroke"
           transform="translate(-136.19,36.195)"
           d="m 74.76,-68.42 c 0,-9.78 -3.96,-16.38 -9.51,-21.4 -6.86,-6.34 -16.9,-7.93 -27.21,-7.93 h -28 V 0 h 9.77 v -39.36 h 21.14 c 18.76,0 33.81,-9.78 33.81,-29.06 z m -9.77,-0.27 c 0,14.27 -11.1,20.34 -25.36,20.34 H 19.81 v -40.42 h 17.18 c 11.36,0 16.38,0.8 22.45,6.61 4.23,3.7 5.55,8.98 5.55,13.47 z m 88.24,32.23 c 0,-20.08 -17.7,-37.51 -37.52,-37.51 -20.87,0 -38.04,16.91 -38.04,38.3 0,21.14 17.97,37.52 38.04,37.52 21.4,0 37.52,-18.49 37.52,-38.31 z m -9.78,-0.26 c 0,16.11 -11.89,29.06 -27.74,29.06 -15.32,0 -28.26,-12.42 -28.26,-28.01 0,-15.58 12.15,-28.79 28,-28.79 15.06,0 28,12.15 28,27.74 z M 170.14,0 v -97.75 h -9.78 V 0 Z m 20.34,0 V -97.75 H 180.7 V 0 Z m 71.86,-72.39 h -10.57 l -24.31,57.6 -23.24,-57.6 h -10.31 l 27.74,70.01 -11.36,27.74 h 10.31 z"
           stroke-linecap="round"
           id="path3" />
      </g>
    </g>
  </g>
</svg>
