<?xml version="1.0" encoding="UTF-8" standalone="no"?>
<svg
   version="1.1"
   width="380"
   height="380"
   viewBox="0 0 380.00001 380"
   xml:space="preserve"
   id="svg151"
   sodipodi:docname="logo-squared.svg"
   inkscape:version="1.4.2 (ebf0e940, 2025-05-08)"
   xmlns:inkscape="http://www.inkscape.org/namespaces/inkscape"
   xmlns:sodipodi="http://sodipodi.sourceforge.net/DTD/sodipodi-0.dtd"
   xmlns="http://www.w3.org/2000/svg"
   xmlns:svg="http://www.w3.org/2000/svg"><sodipodi:namedview
   id="namedview153"
   pagecolor="#ffffff"
   bordercolor="#000000"
   borderopacity="0.25"
   inkscape:showpageshadow="2"
   inkscape:pageopacity="0.0"
   inkscape:pagecheckerboard="0"
   inkscape:deskcolor="#d1d1d1"
   showgrid="false"
   showguides="true"
   inkscape:zoom="0.5"
   inkscape:cx="91"
   inkscape:cy="206"
   inkscape:window-width="1976"
   inkscape:window-height="1055"
   inkscape:window-x="63"
   inkscape:window-y="31"
   inkscape:window-maximized="0"
   inkscape:current-layer="g146" />
<desc
   id="desc132">Created with Fabric.js 5.3.0</desc>
<defs
   id="defs134">
</defs>

<g
   transform="matrix(-1.4002943,0,0,1.4002943,194.90364,189.75859)"
   id="logo-logo"
   inkscape:label="logo">
<g
   paint-order="stroke"
   id="g148"
   inkscape:label="1">
		<g
   transform="scale(1.6474387,-1.6474387)"
   id="g146"
   inkscape:label="2">
<linearGradient
   id="SVGID_46221"
   gradientUnits="userSpaceOnUse"
   gradientTransform="translate(-45.475,-120.472)"
   x1="60.840576"
   y1="0"
   x2="60.840576"
   y2="153.2">
<stop
   offset="0%"
   style="stop-color:rgb(61,128,130);stop-opacity: 1"
   id="stop139" />
<stop
   offset="100%"
   style="stop-color:rgb(104,174,182);stop-opacity: 1"
   id="stop141" />
</linearGradient>
<path
   style="opacity:1;fill:url(#SVGID_46221);fill-rule:nonzero;stroke:none;stroke-width:1;stroke-linecap:butt;stroke-linejoin:miter;stroke-miterlimit:4;stroke-dasharray:none;stroke-dashoffset:0"
   paint-order="stroke"
   transform="translate(-15.365575,43.872)"
   d="M 0,0 H 27.188 V 27.935 C 20.261,27.232 13.825,24.189 8.809,19.191 3.625,13.988 0.543,7.243 0,0 m 12.66,-4.636 c 4.287,-7.03 11.134,-8.177 14.528,-8.281 v 8.281 z m -40.292,-82.559 c 3.327,-0.542 8.51,-1.102 14.804,-0.833 10.203,0.439 25.519,3.22 40.545,13.983 14.024,10.044 28.33,25.71 37.336,40.883 0.613,1.03 1.208,2.088 1.773,3.146 6.485,12.16 6.308,26.603 -0.473,38.635 -6.548,11.62 -17.826,18.694 -30.941,19.409 -0.785,0.043 -1.582,0.064 -2.37,0.064 h -1.218 v -6.369 c 9.079,-1.374 16.058,-9.23 16.058,-18.685 0,-4.737 -0.913,-9.315 -2.714,-13.605 -1.786,-4.332 -4.382,-8.212 -7.711,-11.52 z m -3.8,-13.606 c 9.394,-0.04 29.473,0.657 45.959,6.684 17.964,6.565 30.834,17.123 41.73,34.231 3.03,4.759 4.83,9.671 5.896,13.988 -8.929,-12.172 -20.42,-23.81 -31.736,-31.915 -16.022,-11.476 -32.356,-14.413 -43.237,-14.855 -3.875,-0.156 -7.335,-0.023 -10.249,0.23 z m -2.851,-15.035 h 6.328 c 6.558,0 12.722,2.553 17.358,7.19 2.075,2.074 4.425,3.829 6.998,5.223 -7.408,-1.19 -14.474,-1.714 -20.189,-1.919 z m 6.328,-4.636 h -17.52 l 15.015,15.014 c -3.817,0.005 -6.237,0.138 -6.571,0.157 l -5.157,0.3 13.306,13.307 c -2.482,0.425 -3.925,0.83 -4.063,0.869 l -3.792,1.08 70.92,70.941 c 2.896,2.877 5.15,6.245 6.705,10.017 1.568,3.733 2.359,7.707 2.359,11.825 0,6.892 -4.914,12.658 -11.423,13.978 v -34.205 l -2.019,-0.263 c -0.17,-0.022 -4.22,-0.525 -9.05,0.97 -4.236,1.311 -9.871,4.432 -13.348,11.846 H -4.722 v 2.318 c 0,9.349 3.641,18.151 10.253,24.787 6.641,6.617 15.436,10.259 24.772,10.259 h 2.739 c 0.872,0 1.753,-0.024 2.623,-0.071 14.511,-0.791 27.494,-8.927 34.727,-21.762 7.563,-13.419 7.758,-29.528 0.524,-43.092 -0.597,-1.12 -1.229,-2.241 -1.876,-3.332 -0.274,-0.46 -0.552,-0.922 -0.834,-1.383 C 67.86,-42.494 66.329,-52.697 60.167,-62.376 49.315,-79.415 36.582,-90.295 19.185,-97.295 l -19.718,-9.76 c -2.517,-1.246 -4.8,-2.883 -6.786,-4.87 -5.512,-5.512 -12.84,-8.547 -20.636,-8.547"
   stroke-linecap="round"
   id="path144"
   inkscape:label="polly" />
</g>
</g>
</g>
</svg>
